<?xml version="1.0" encoding="utf-8"?>
<!-- Generator: Adobe Illustrator 27.5.0, SVG Export Plug-In . SVG Version: 6.00 Build 0)  -->
<svg version="1.1" xmlns="http://www.w3.org/2000/svg" xmlns:xlink="http://www.w3.org/1999/xlink" x="0px" y="0px"
	 viewBox="0 0 500 500" style="enable-background:new 0 0 500 500;" xml:space="preserve">
<g id="Background_Simple">
	<g>
		<path style="fill:#92E3A9;" d="M455.203,192.698c-2.72-10.105-6.003-19.933-9.755-29.329
			c-26.699-66.862-83.939-117.3-155.245-131.325c-70.88-13.941-193.516,5.182-211.415,91.468
			c-3.705,17.859-0.245,36.335-0.34,54.575c-0.182,34.71-15.032,60.178-31.192,89.42c-12.169,22.021-22.531,47.307-16.756,71.796
			c3.747,15.888,13.987,29.561,25.869,40.755c40.235,37.902,94.131,45.66,146.999,36.988c25.05-4.109,49.456-15.055,74.221-18.154
			c31.72-3.97,63.75,6.219,95.333-0.7c30.32-6.642,55.968-28.719,70.932-55.913C468.754,297.028,468.332,241.479,455.203,192.698z"
			/>
		<path style="opacity:0.7;fill:#FFFFFF;" d="M455.203,192.698c-2.72-10.105-6.003-19.933-9.755-29.329
			c-26.699-66.862-83.939-117.3-155.245-131.325c-70.88-13.941-193.516,5.182-211.415,91.468
			c-3.705,17.859-0.245,36.335-0.34,54.575c-0.182,34.71-15.032,60.178-31.192,89.42c-12.169,22.021-22.531,47.307-16.756,71.796
			c3.747,15.888,13.987,29.561,25.869,40.755c40.235,37.902,94.131,45.66,146.999,36.988c25.05-4.109,49.456-15.055,74.221-18.154
			c31.72-3.97,63.75,6.219,95.333-0.7c30.32-6.642,55.968-28.719,70.932-55.913C468.754,297.028,468.332,241.479,455.203,192.698z"
			/>
	</g>
</g>
<g id="Diplomas">
	<g>
		
			<rect x="120.512" y="89.164" style="fill:#263238;stroke:#263238;stroke-linecap:round;stroke-linejoin:round;stroke-miterlimit:10;" width="76.844" height="54.624"/>
		
			<rect x="123.752" y="92.404" style="fill:#FFFFFF;stroke:#263238;stroke-linecap:round;stroke-linejoin:round;stroke-miterlimit:10;" width="70.363" height="48.143"/>
		
			<line style="fill:none;stroke:#263238;stroke-linecap:round;stroke-linejoin:round;stroke-miterlimit:10;" x1="136.192" y1="109.015" x2="182.176" y2="109.015"/>
		
			<line style="fill:none;stroke:#263238;stroke-linecap:round;stroke-linejoin:round;stroke-miterlimit:10;" x1="128.566" y1="116.409" x2="188.646" y2="116.409"/>
		
			<line style="fill:none;stroke:#263238;stroke-linecap:round;stroke-linejoin:round;stroke-miterlimit:10;" x1="128.566" y1="132.122" x2="142.2" y2="132.122"/>
		
			<line style="fill:none;stroke:#263238;stroke-linecap:round;stroke-linejoin:round;stroke-miterlimit:10;" x1="175.244" y1="132.122" x2="188.877" y2="132.122"/>
		<polygon style="fill:#263238;stroke:#263238;stroke-linecap:round;stroke-linejoin:round;stroke-miterlimit:10;" points="
			156.758,126.345 154.909,137.437 158.837,134.664 162.304,137.206 159.762,125.421 		"/>
		<path style="fill:#92E3A9;stroke:#263238;stroke-miterlimit:10;" d="M162.766,124.035c0-2.425-1.966-4.39-4.39-4.39
			c-2.425,0-4.39,1.966-4.39,4.39c0,2.425,1.966,4.39,4.39,4.39C160.8,128.425,162.766,126.459,162.766,124.035z"/>
	</g>
	<g>
		
			<rect x="211.001" y="46.136" style="fill:#263238;stroke:#263238;stroke-linecap:round;stroke-linejoin:round;stroke-miterlimit:10;" width="76.844" height="89.233"/>
		
			<rect x="214.241" y="51.43" style="fill:#FFFFFF;stroke:#263238;stroke-linecap:round;stroke-linejoin:round;stroke-miterlimit:10;" width="70.363" height="78.646"/>
		
			<rect x="218.976" y="56.721" style="fill:#FFFFFF;stroke:#263238;stroke-linecap:round;stroke-linejoin:round;stroke-miterlimit:10;" width="60.894" height="68.062"/>
		
			<line style="fill:none;stroke:#263238;stroke-linecap:round;stroke-linejoin:round;stroke-miterlimit:10;" x1="228.67" y1="65.987" x2="270.573" y2="65.987"/>
		
			<line style="fill:none;stroke:#263238;stroke-linecap:round;stroke-linejoin:round;stroke-miterlimit:10;" x1="221.721" y1="73.382" x2="276.469" y2="73.382"/>
		
			<line style="fill:none;stroke:#263238;stroke-linecap:round;stroke-linejoin:round;stroke-miterlimit:10;" x1="223.147" y1="115.007" x2="236.78" y2="115.007"/>
		
			<line style="fill:none;stroke:#263238;stroke-linecap:round;stroke-linejoin:round;stroke-miterlimit:10;" x1="262.55" y1="115.007" x2="276.184" y2="115.007"/>
		<polygon style="fill:#263238;stroke:#263238;stroke-linecap:round;stroke-linejoin:round;stroke-miterlimit:10;" points="
			262.976,89.189 259.89,107.705 266.447,103.076 272.233,107.319 267.99,87.647 		"/>
		
			<ellipse transform="matrix(0.9734 -0.229 0.229 0.9734 -12.4819 63.1167)" style="fill:#92E3A9;stroke:#263238;stroke-miterlimit:10;" cx="265.676" cy="85.332" rx="7.329" ry="7.329"/>
	</g>
	<g>
		
			<rect x="301.256" y="89.164" style="fill:#263238;stroke:#263238;stroke-linecap:round;stroke-linejoin:round;stroke-miterlimit:10;" width="76.844" height="54.624"/>
		<path style="fill:#FFFFFF;stroke:#263238;stroke-linecap:round;stroke-linejoin:round;stroke-miterlimit:10;" d="M374.629,98.07
			c-2.719,0-4.923-2.204-4.923-4.923c0-0.253,0.025-0.5,0.062-0.743h-60.223c0.037,0.243,0.062,0.49,0.062,0.743
			c0,2.719-2.204,4.923-4.923,4.923c-0.064,0-0.125-0.007-0.188-0.009v36.735c0.063-0.002,0.125-0.01,0.188-0.01
			c2.719,0,4.923,2.204,4.923,4.923c0,0.287-0.03,0.566-0.077,0.839h60.252c-0.047-0.273-0.077-0.553-0.077-0.839
			c0-2.719,2.204-4.923,4.923-4.923c0.078,0,0.154,0.008,0.231,0.012V98.058C374.783,98.062,374.707,98.07,374.629,98.07z"/>
		
			<line style="fill:none;stroke:#263238;stroke-linecap:round;stroke-linejoin:round;stroke-miterlimit:10;" x1="326.871" y1="109.015" x2="362.921" y2="109.015"/>
		
			<line style="fill:none;stroke:#263238;stroke-linecap:round;stroke-linejoin:round;stroke-miterlimit:10;" x1="326.456" y1="116.409" x2="369.391" y2="116.409"/>
		
			<line style="fill:none;stroke:#263238;stroke-linecap:round;stroke-linejoin:round;stroke-miterlimit:10;" x1="309.311" y1="132.122" x2="322.944" y2="132.122"/>
		
			<line style="fill:none;stroke:#263238;stroke-linecap:round;stroke-linejoin:round;stroke-miterlimit:10;" x1="355.988" y1="132.122" x2="369.622" y2="132.122"/>
		<g>
			<polygon style="fill:#263238;stroke:#263238;stroke-linecap:round;stroke-linejoin:round;stroke-miterlimit:10;" points="
				314.842,109.616 312.349,124.577 317.647,120.837 322.323,124.266 318.894,108.369 			"/>
			<path style="fill:#92E3A9;stroke:#263238;stroke-miterlimit:10;" d="M322.946,106.499c0-3.271-2.651-5.922-5.922-5.922
				c-3.271,0-5.922,2.651-5.922,5.922c0,3.271,2.651,5.922,5.922,5.922C320.295,112.421,322.946,109.77,322.946,106.499z"/>
		</g>
	</g>
	<g>
		
			<rect x="331.238" y="157.111" style="fill:none;stroke:#263238;stroke-linecap:round;stroke-linejoin:round;stroke-miterlimit:10;" width="77.554" height="62.474"/>
		
			<rect x="335.249" y="160.342" style="fill:#263238;stroke:#263238;stroke-linecap:round;stroke-linejoin:round;stroke-miterlimit:10;" width="69.531" height="56.011"/>
		
			<rect x="341.266" y="165.189" style="fill:#FFFFFF;stroke:#263238;stroke-linecap:round;stroke-linejoin:round;stroke-miterlimit:10;" width="57.497" height="46.317"/>
		<g>
			<polygon style="fill:#263238;stroke:#263238;stroke-linecap:round;stroke-linejoin:round;stroke-miterlimit:10;" points="
				347.579,195.27 345.852,205.633 349.522,203.042 352.761,205.417 350.386,194.406 			"/>
			<circle style="fill:#92E3A9;stroke:#263238;stroke-miterlimit:10;" cx="349.09" cy="193.111" r="4.102"/>
		</g>
		<path style="fill:none;stroke:#263238;stroke-linecap:round;stroke-linejoin:round;stroke-miterlimit:10;" d="M393.288,180.694
			c-3.834-7.057-12.811-12.009-23.273-12.009c-9.767,0-18.239,4.315-22.441,10.631"/>
		
			<line style="fill:none;stroke:#263238;stroke-linecap:round;stroke-linejoin:round;stroke-miterlimit:10;" x1="355.872" y1="186.396" x2="385.311" y2="186.396"/>
		
			<line style="fill:none;stroke:#263238;stroke-linecap:round;stroke-linejoin:round;stroke-miterlimit:10;" x1="355.872" y1="191.041" x2="385.311" y2="191.041"/>
		
			<line style="fill:none;stroke:#263238;stroke-linecap:round;stroke-linejoin:round;stroke-miterlimit:10;" x1="355.872" y1="201.784" x2="385.311" y2="201.784"/>
	</g>
	<g>
		
			<rect x="87.113" y="157.111" style="fill:none;stroke:#263238;stroke-linecap:round;stroke-linejoin:round;stroke-miterlimit:10;" width="77.554" height="62.474"/>
		
			<rect x="91.125" y="160.342" style="fill:#263238;stroke:#263238;stroke-linecap:round;stroke-linejoin:round;stroke-miterlimit:10;" width="69.531" height="56.011"/>
		
			<rect x="97.142" y="165.189" style="fill:#FFFFFF;stroke:#263238;stroke-linecap:round;stroke-linejoin:round;stroke-miterlimit:10;" width="57.497" height="46.317"/>
		<g>
			<polygon style="fill:#263238;stroke:#263238;stroke-linecap:round;stroke-linejoin:round;stroke-miterlimit:10;" points="
				103.454,195.27 101.727,205.633 105.397,203.042 108.636,205.417 106.261,194.406 			"/>
			<circle style="fill:#92E3A9;stroke:#263238;stroke-miterlimit:10;" cx="104.966" cy="193.111" r="4.102"/>
		</g>
		<path style="fill:none;stroke:#263238;stroke-linecap:round;stroke-linejoin:round;stroke-miterlimit:10;" d="M149.163,180.694
			c-3.834-7.057-12.811-12.009-23.273-12.009c-9.767,0-18.239,4.315-22.441,10.631"/>
		
			<line style="fill:none;stroke:#263238;stroke-linecap:round;stroke-linejoin:round;stroke-miterlimit:10;" x1="111.747" y1="186.396" x2="141.186" y2="186.396"/>
		
			<line style="fill:none;stroke:#263238;stroke-linecap:round;stroke-linejoin:round;stroke-miterlimit:10;" x1="111.747" y1="191.041" x2="141.186" y2="191.041"/>
		
			<line style="fill:none;stroke:#263238;stroke-linecap:round;stroke-linejoin:round;stroke-miterlimit:10;" x1="111.747" y1="201.784" x2="141.186" y2="201.784"/>
	</g>
</g>
<g id="Chair">
	<g>
		<polygon style="fill:#263238;stroke:#263238;stroke-linecap:round;stroke-linejoin:round;stroke-miterlimit:10;" points="
			334.508,346.664 334.508,472.568 328.457,472.568 328.457,346.664 324.606,346.664 324.606,476.502 325.469,476.502 
			328.457,476.502 334.508,476.502 338.36,476.502 338.36,472.568 338.36,346.664 		"/>
		<polygon style="fill:#263238;stroke:#263238;stroke-linecap:round;stroke-linejoin:round;stroke-miterlimit:10;" points="
			448.392,346.664 448.392,472.568 442.89,472.568 442.89,346.664 439.039,346.664 439.039,476.502 439.067,476.502 442.89,476.502 
			448.392,476.502 451.957,476.502 452.243,476.502 452.243,346.664 		"/>
		<path style="fill:#FFFFFF;stroke:#263238;stroke-linecap:round;stroke-linejoin:round;stroke-miterlimit:10;" d="M443.371,306.502
			H333.477c-2.773,0-5.021,2.248-5.021,5.021v76.884c0,2.773,2.248,5.021,5.021,5.021h109.894c2.773,0,5.021-2.248,5.021-5.021
			v-76.885C448.392,308.75,446.144,306.502,443.371,306.502z"/>
		<path style="fill:#FFFFFF;stroke:#263238;stroke-linecap:round;stroke-linejoin:round;stroke-miterlimit:10;" d="M448.117,412.014
			H328.182c-1.367,0-2.476-1.108-2.476-2.476v-17.605c0-1.367,1.108-2.476,2.476-2.476l56.397,2.508
			c4.289,0.191,8.585,0.181,12.874-0.029l50.665-2.479c1.367,0,2.476,1.108,2.476,2.476v17.605
			C450.593,410.906,449.484,412.014,448.117,412.014z"/>
	</g>
</g>
<g id="Floor">
	<g>
		
			<line style="fill:none;stroke:#263238;stroke-linecap:round;stroke-linejoin:round;stroke-miterlimit:10;" x1="43" y1="476.502" x2="471" y2="476.502"/>
	</g>
</g>
<g id="Plant">
	<g>
		<g>
			
				<line style="fill:none;stroke:#263238;stroke-linecap:round;stroke-linejoin:round;stroke-miterlimit:10;" x1="71.775" y1="296.603" x2="85.964" y2="432.568"/>
			<g>
				<g>
					
						<line style="fill:none;stroke:#263238;stroke-linecap:round;stroke-linejoin:round;stroke-miterlimit:10;" x1="83.168" y1="405.982" x2="77.245" y2="399.754"/>
					<path style="fill:#92E3A9;stroke:#263238;stroke-miterlimit:10;" d="M79.199,401.789c0,0,0.184-3.005-2.56-5.456
						c-1.651-1.475-10.341-5.13-11.166-2.07C64.576,397.592,73.471,404.129,79.199,401.789z"/>
					
						<line style="fill:none;stroke:#263238;stroke-linecap:round;stroke-linejoin:round;stroke-miterlimit:10;" x1="79.199" y1="401.789" x2="70.926" y2="396.634"/>
				</g>
				<g>
					
						<line style="fill:none;stroke:#263238;stroke-linecap:round;stroke-linejoin:round;stroke-miterlimit:10;" x1="84.64" y1="420.026" x2="78.858" y2="415.217"/>
					<path style="fill:#92E3A9;stroke:#263238;stroke-miterlimit:10;" d="M80.813,417.253c0,0,0.184-3.005-2.56-5.456
						c-1.651-1.475-10.341-5.13-11.166-2.07C66.19,413.055,75.084,419.592,80.813,417.253z"/>
					
						<line style="fill:none;stroke:#263238;stroke-linecap:round;stroke-linejoin:round;stroke-miterlimit:10;" x1="80.813" y1="417.253" x2="72.54" y2="412.097"/>
				</g>
				<g>
					
						<line style="fill:none;stroke:#263238;stroke-linecap:round;stroke-linejoin:round;stroke-miterlimit:10;" x1="79.148" y1="367.276" x2="73.307" y2="362.021"/>
					<path style="fill:#92E3A9;stroke:#263238;stroke-miterlimit:10;" d="M75.261,364.056c0,0,0.184-3.005-2.56-5.456
						c-1.651-1.475-10.341-5.13-11.166-2.07C60.638,359.859,69.533,366.396,75.261,364.056z"/>
					
						<line style="fill:none;stroke:#263238;stroke-linecap:round;stroke-linejoin:round;stroke-miterlimit:10;" x1="75.261" y1="364.056" x2="66.988" y2="358.901"/>
				</g>
				<g>
					
						<line style="fill:none;stroke:#263238;stroke-linecap:round;stroke-linejoin:round;stroke-miterlimit:10;" x1="80.777" y1="383.719" x2="74.92" y2="377.484"/>
					<path style="fill:#92E3A9;stroke:#263238;stroke-miterlimit:10;" d="M76.875,379.52c0,0,0.184-3.005-2.56-5.456
						c-1.651-1.475-10.341-5.13-11.165-2.07C62.252,375.322,71.147,381.859,76.875,379.52z"/>
					
						<line style="fill:none;stroke:#263238;stroke-linecap:round;stroke-linejoin:round;stroke-miterlimit:10;" x1="76.875" y1="379.52" x2="68.602" y2="374.364"/>
				</g>
				<g>
					
						<line style="fill:none;stroke:#263238;stroke-linecap:round;stroke-linejoin:round;stroke-miterlimit:10;" x1="76.545" y1="342.875" x2="70.685" y2="336.902"/>
					<path style="fill:#92E3A9;stroke:#263238;stroke-miterlimit:10;" d="M72.64,338.938c0,0,0.184-3.005-2.56-5.456
						c-1.651-1.475-10.341-5.13-11.166-2.07C58.017,334.74,66.911,341.277,72.64,338.938z"/>
					
						<line style="fill:none;stroke:#263238;stroke-linecap:round;stroke-linejoin:round;stroke-miterlimit:10;" x1="72.64" y1="338.938" x2="64.367" y2="333.782"/>
				</g>
				<g>
					
						<line style="fill:none;stroke:#263238;stroke-linecap:round;stroke-linejoin:round;stroke-miterlimit:10;" x1="73.724" y1="316.013" x2="68.052" y2="311.673"/>
					<path style="fill:#92E3A9;stroke:#263238;stroke-miterlimit:10;" d="M70.007,313.709c0,0,0.184-3.006-2.56-5.457
						c-1.651-1.475-10.341-5.13-11.166-2.07C55.384,309.512,64.279,316.049,70.007,313.709z"/>
					
						<line style="fill:none;stroke:#263238;stroke-linecap:round;stroke-linejoin:round;stroke-miterlimit:10;" x1="70.007" y1="313.709" x2="61.734" y2="308.554"/>
				</g>
				<g>
					
						<line style="fill:none;stroke:#263238;stroke-linecap:round;stroke-linejoin:round;stroke-miterlimit:10;" x1="82.596" y1="397.399" x2="87.487" y2="389.423"/>
					<path style="fill:#92E3A9;stroke:#263238;stroke-miterlimit:10;" d="M85.995,391.818c0,0-0.801-2.903,1.379-5.867
						c1.311-1.784,9.059-7.155,10.498-4.331C99.436,384.692,92.083,392.925,85.995,391.818z"/>
					
						<line style="fill:none;stroke:#263238;stroke-linecap:round;stroke-linejoin:round;stroke-miterlimit:10;" x1="85.995" y1="391.818" x2="91.816" y2="386.357"/>
				</g>
				<g>
					
						<line style="fill:none;stroke:#263238;stroke-linecap:round;stroke-linejoin:round;stroke-miterlimit:10;" x1="78.349" y1="356.707" x2="83.241" y2="348.731"/>
					<path style="fill:#92E3A9;stroke:#263238;stroke-miterlimit:10;" d="M81.749,351.127c0,0-0.801-2.903,1.378-5.867
						c1.311-1.784,7.373-6.252,8.811-3.427C93.503,344.904,87.837,352.233,81.749,351.127z"/>
					
						<line style="fill:none;stroke:#263238;stroke-linecap:round;stroke-linejoin:round;stroke-miterlimit:10;" x1="81.749" y1="351.127" x2="89.198" y2="344.007"/>
				</g>
				<g>
					
						<line style="fill:none;stroke:#263238;stroke-linecap:round;stroke-linejoin:round;stroke-miterlimit:10;" x1="76.483" y1="338.825" x2="81.374" y2="330.849"/>
					<path style="fill:#92E3A9;stroke:#263238;stroke-miterlimit:10;" d="M79.882,333.244c0,0-0.801-2.903,1.379-5.868
						c1.311-1.784,9.059-7.155,10.497-4.331C93.324,326.118,85.97,334.351,79.882,333.244z"/>
					
						<line style="fill:none;stroke:#263238;stroke-linecap:round;stroke-linejoin:round;stroke-miterlimit:10;" x1="79.882" y1="333.244" x2="87.332" y2="326.124"/>
				</g>
				<g>
					
						<line style="fill:none;stroke:#263238;stroke-linecap:round;stroke-linejoin:round;stroke-miterlimit:10;" x1="73.747" y1="312.609" x2="78.639" y2="304.633"/>
					<path style="fill:#92E3A9;stroke:#263238;stroke-miterlimit:10;" d="M77.146,307.029c0,0-0.801-2.903,1.379-5.868
						c1.311-1.784,9.059-7.155,10.498-4.33C90.588,299.902,83.235,308.135,77.146,307.029z"/>
					
						<line style="fill:none;stroke:#263238;stroke-linecap:round;stroke-linejoin:round;stroke-miterlimit:10;" x1="77.146" y1="307.029" x2="84.596" y2="299.909"/>
					<path style="fill:#92E3A9;stroke:#263238;stroke-miterlimit:10;" d="M71.655,295.848c0,0-0.801-2.903,1.379-5.867
						c1.311-1.784,9.059-7.155,10.498-4.331C85.096,288.721,77.743,296.954,71.655,295.848z"/>
					
						<line style="fill:none;stroke:#263238;stroke-linecap:round;stroke-linejoin:round;stroke-miterlimit:10;" x1="71.655" y1="295.848" x2="79.104" y2="288.728"/>
					<path style="fill:#92E3A9;stroke:#263238;stroke-miterlimit:10;" d="M72.087,296.155c0,0-2.971,0.492-5.691-1.986
						c-1.636-1.491-6.166-9.759-3.206-10.894C66.409,282.041,73.826,290.217,72.087,296.155z"/>
					
						<line style="fill:none;stroke:#263238;stroke-linecap:round;stroke-linejoin:round;stroke-miterlimit:10;" x1="72.087" y1="296.155" x2="65.787" y2="288"/>
				</g>
			</g>
		</g>
		
			<line style="fill:none;stroke:#263238;stroke-linecap:round;stroke-linejoin:round;stroke-miterlimit:10;" x1="93.031" y1="259.959" x2="93.031" y2="431.906"/>
		<g>
			
				<line style="fill:none;stroke:#263238;stroke-linecap:round;stroke-linejoin:round;stroke-miterlimit:10;" x1="109.2" y1="315.328" x2="95.091" y2="451.301"/>
			<g>
				<g>
					
						<line style="fill:none;stroke:#263238;stroke-linecap:round;stroke-linejoin:round;stroke-miterlimit:10;" x1="98.071" y1="423.522" x2="94.808" y2="419.789"/>
					<path style="fill:#92E3A9;stroke:#263238;stroke-miterlimit:10;" d="M94.808,419.789c0,0,0.799-2.903-1.382-5.867
						c-1.312-1.783-9.063-7.15-10.5-4.324C81.363,412.671,88.72,420.899,94.808,419.789z"/>
					
						<line style="fill:none;stroke:#263238;stroke-linecap:round;stroke-linejoin:round;stroke-miterlimit:10;" x1="94.808" y1="419.789" x2="87.774" y2="413.041"/>
				</g>
				<g>
					
						<line style="fill:none;stroke:#263238;stroke-linecap:round;stroke-linejoin:round;stroke-miterlimit:10;" x1="102.058" y1="384.701" x2="97.213" y2="380.653"/>
					<path style="fill:#92E3A9;stroke:#263238;stroke-miterlimit:10;" d="M98.723,382.054c0,0,0.799-2.903-1.382-5.867
						c-1.312-1.783-9.063-7.15-10.5-4.325C85.278,374.935,92.636,383.164,98.723,382.054z"/>
					
						<line style="fill:none;stroke:#263238;stroke-linecap:round;stroke-linejoin:round;stroke-miterlimit:10;" x1="98.723" y1="382.054" x2="91.689" y2="375.305"/>
				</g>
				<g>
					
						<line style="fill:none;stroke:#263238;stroke-linecap:round;stroke-linejoin:round;stroke-miterlimit:10;" x1="100.521" y1="403.096" x2="95.625" y2="395.123"/>
					<path style="fill:#92E3A9;stroke:#263238;stroke-miterlimit:10;" d="M97.119,397.518c0,0,0.799-2.903-1.382-5.867
						c-1.312-1.783-9.063-7.15-10.5-4.324C83.674,390.399,91.031,398.628,97.119,397.518z"/>
					
						<line style="fill:none;stroke:#263238;stroke-linecap:round;stroke-linejoin:round;stroke-miterlimit:10;" x1="97.119" y1="397.518" x2="90.085" y2="390.77"/>
				</g>
				<g>
					
						<line style="fill:none;stroke:#263238;stroke-linecap:round;stroke-linejoin:round;stroke-miterlimit:10;" x1="104.511" y1="359.924" x2="99.837" y2="354.539"/>
					<path style="fill:#92E3A9;stroke:#263238;stroke-miterlimit:10;" d="M101.33,356.933c0,0,0.799-2.903-1.382-5.867
						c-1.312-1.783-9.063-7.15-10.5-4.324C87.885,349.815,95.243,358.043,101.33,356.933z"/>
					
						<line style="fill:none;stroke:#263238;stroke-linecap:round;stroke-linejoin:round;stroke-miterlimit:10;" x1="101.33" y1="356.933" x2="94.296" y2="350.185"/>
				</g>
				<g>
					
						<line style="fill:none;stroke:#263238;stroke-linecap:round;stroke-linejoin:round;stroke-miterlimit:10;" x1="106.964" y1="336.312" x2="102.454" y2="329.309"/>
					<path style="fill:#92E3A9;stroke:#263238;stroke-miterlimit:10;" d="M103.948,331.703c0,0,0.799-2.903-1.382-5.867
						c-1.312-1.783-9.063-7.15-10.5-4.324C90.503,324.585,97.86,332.814,103.948,331.703z"/>
					
						<line style="fill:none;stroke:#263238;stroke-linecap:round;stroke-linejoin:round;stroke-miterlimit:10;" x1="103.948" y1="331.703" x2="96.914" y2="324.955"/>
				</g>
				<g>
					
						<line style="fill:none;stroke:#263238;stroke-linecap:round;stroke-linejoin:round;stroke-miterlimit:10;" x1="99.036" y1="416.192" x2="105.465" y2="409.394"/>
					<path style="fill:#92E3A9;stroke:#263238;stroke-miterlimit:10;" d="M103.511,411.431c0,0-0.186-3.005,2.557-5.458
						c1.65-1.476,10.338-5.136,11.164-2.076C118.132,407.225,109.241,413.767,103.511,411.431z"/>
					
						<line style="fill:none;stroke:#263238;stroke-linecap:round;stroke-linejoin:round;stroke-miterlimit:10;" x1="103.511" y1="411.431" x2="112.267" y2="405.997"/>
				</g>
				<g>
					
						<line style="fill:none;stroke:#263238;stroke-linecap:round;stroke-linejoin:round;stroke-miterlimit:10;" x1="103.258" y1="375.498" x2="109.687" y2="368.7"/>
					<path style="fill:#92E3A9;stroke:#263238;stroke-miterlimit:10;" d="M107.734,370.737c0,0-0.186-3.005,2.557-5.458
						c1.65-1.476,10.338-5.136,11.164-2.076C122.354,366.53,113.464,373.073,107.734,370.737z"/>
					
						<line style="fill:none;stroke:#263238;stroke-linecap:round;stroke-linejoin:round;stroke-miterlimit:10;" x1="107.734" y1="370.737" x2="116.49" y2="365.303"/>
				</g>
				<g>
					
						<line style="fill:none;stroke:#263238;stroke-linecap:round;stroke-linejoin:round;stroke-miterlimit:10;" x1="105.114" y1="357.615" x2="111.543" y2="350.816"/>
					<path style="fill:#92E3A9;stroke:#263238;stroke-miterlimit:10;" d="M109.59,352.853c0,0-0.186-3.005,2.557-5.458
						c1.65-1.476,10.338-5.137,11.164-2.077C124.21,348.647,115.319,355.19,109.59,352.853z"/>
					
						<line style="fill:none;stroke:#263238;stroke-linecap:round;stroke-linejoin:round;stroke-miterlimit:10;" x1="109.59" y1="352.853" x2="118.345" y2="347.42"/>
				</g>
				<g>
					
						<line style="fill:none;stroke:#263238;stroke-linecap:round;stroke-linejoin:round;stroke-miterlimit:10;" x1="107.761" y1="330.057" x2="114.263" y2="324.599"/>
					<path style="fill:#92E3A9;stroke:#263238;stroke-miterlimit:10;" d="M112.31,326.636c0,0-0.186-3.005,2.557-5.458
						c1.65-1.476,10.338-5.137,11.164-2.077C126.93,322.43,118.04,328.972,112.31,326.636z"/>
					<line style="fill:#92E3A9;stroke:#263238;stroke-miterlimit:10;" x1="112.31" y1="326.636" x2="121.066" y2="321.202"/>
					<path style="fill:#92E3A9;stroke:#263238;stroke-miterlimit:10;" d="M109.239,314.564c0,0-0.186-3.005,2.557-5.458
						c1.65-1.476,10.338-5.136,11.164-2.076C123.859,310.358,114.968,316.901,109.239,314.564z"/>
					
						<line style="fill:none;stroke:#263238;stroke-linecap:round;stroke-linejoin:round;stroke-miterlimit:10;" x1="109.239" y1="314.564" x2="117.994" y2="309.131"/>
					<path style="fill:#92E3A9;stroke:#263238;stroke-miterlimit:10;" d="M109.598,314.954c0,0-3.008-0.13-5.16-3.115
						c-1.294-1.796-4.024-10.819-0.894-11.32C106.948,299.973,112.522,309.5,109.598,314.954z"/>
					
						<line style="fill:none;stroke:#263238;stroke-linecap:round;stroke-linejoin:round;stroke-miterlimit:10;" x1="109.598" y1="314.954" x2="105.112" y2="305.677"/>
				</g>
			</g>
		</g>
		<g>
			<g>
				
					<line style="fill:none;stroke:#263238;stroke-linecap:round;stroke-linejoin:round;stroke-miterlimit:10;" x1="92.797" y1="405.736" x2="87.475" y2="398.627"/>
				<path style="fill:#92E3A9;stroke:#263238;stroke-miterlimit:10;" d="M89.208,400.855c0,0,0.495-2.97-1.98-5.693
					c-1.489-1.638-9.753-6.176-10.89-3.218C75.1,395.162,83.268,402.587,89.208,400.855z"/>
				
					<line style="fill:none;stroke:#263238;stroke-linecap:round;stroke-linejoin:round;stroke-miterlimit:10;" x1="89.208" y1="400.855" x2="81.515" y2="394.869"/>
			</g>
			<g>
				
					<line style="fill:none;stroke:#263238;stroke-linecap:round;stroke-linejoin:round;stroke-miterlimit:10;" x1="92.982" y1="371.443" x2="87.475" y2="366.314"/>
				<path style="fill:#92E3A9;stroke:#263238;stroke-miterlimit:10;" d="M89.208,368.541c0,0,0.495-2.97-1.98-5.693
					c-1.489-1.638-9.753-6.176-10.89-3.218C75.1,362.849,83.268,370.274,89.208,368.541z"/>
				
					<line style="fill:none;stroke:#263238;stroke-linecap:round;stroke-linejoin:round;stroke-miterlimit:10;" x1="89.208" y1="368.541" x2="81.515" y2="362.555"/>
			</g>
			<g>
				
					<line style="fill:none;stroke:#263238;stroke-linecap:round;stroke-linejoin:round;stroke-miterlimit:10;" x1="93.168" y1="335.801" x2="87.475" y2="328.376"/>
				<path style="fill:#92E3A9;stroke:#263238;stroke-miterlimit:10;" d="M89.208,330.603c0,0,0.495-2.97-1.98-5.693
					c-1.489-1.638-9.753-6.176-10.89-3.218C75.1,324.911,83.268,332.336,89.208,330.603z"/>
				
					<line style="fill:none;stroke:#263238;stroke-linecap:round;stroke-linejoin:round;stroke-miterlimit:10;" x1="89.208" y1="330.603" x2="81.515" y2="324.617"/>
			</g>
			<g>
				
					<line style="fill:none;stroke:#263238;stroke-linecap:round;stroke-linejoin:round;stroke-miterlimit:10;" x1="92.797" y1="307.917" x2="87.475" y2="303.121"/>
				<path style="fill:#92E3A9;stroke:#263238;stroke-miterlimit:10;" d="M89.208,305.348c0,0,0.495-2.97-1.98-5.693
					c-1.489-1.638-9.753-6.176-10.89-3.218C75.1,299.655,83.268,307.081,89.208,305.348z"/>
				
					<line style="fill:none;stroke:#263238;stroke-linecap:round;stroke-linejoin:round;stroke-miterlimit:10;" x1="89.208" y1="305.348" x2="81.515" y2="299.362"/>
			</g>
			<g>
				
					<line style="fill:none;stroke:#263238;stroke-linecap:round;stroke-linejoin:round;stroke-miterlimit:10;" x1="93.104" y1="282.65" x2="87.584" y2="278.602"/>
				<path style="fill:#92E3A9;stroke:#263238;stroke-miterlimit:10;" d="M89.208,279.983c0,0,0.495-2.97-1.98-5.693
					c-1.489-1.638-9.753-6.176-10.89-3.218C75.1,274.29,83.268,281.715,89.208,279.983z"/>
				
					<line style="fill:none;stroke:#263238;stroke-linecap:round;stroke-linejoin:round;stroke-miterlimit:10;" x1="89.208" y1="279.983" x2="81.515" y2="273.996"/>
			</g>
			<g>
				
					<line style="fill:none;stroke:#263238;stroke-linecap:round;stroke-linejoin:round;stroke-miterlimit:10;" x1="94.146" y1="414.322" x2="98.735" y2="408.495"/>
				<path style="fill:#92E3A9;stroke:#263238;stroke-miterlimit:10;" d="M97.003,410.722c0,0-0.495-2.97,1.98-5.693
					c1.489-1.638,9.753-6.176,10.89-3.218C111.11,405.03,102.943,412.455,97.003,410.722z"/>
				
					<line style="fill:none;stroke:#263238;stroke-linecap:round;stroke-linejoin:round;stroke-miterlimit:10;" x1="97.003" y1="410.722" x2="105.151" y2="404.414"/>
			</g>
			<g>
				
					<line style="fill:none;stroke:#263238;stroke-linecap:round;stroke-linejoin:round;stroke-miterlimit:10;" x1="93.042" y1="364.527" x2="98.735" y2="357.102"/>
				<path style="fill:#92E3A9;stroke:#263238;stroke-miterlimit:10;" d="M97.003,359.329c0,0-0.495-2.97,1.98-5.693
					c1.489-1.638,9.753-6.176,10.89-3.218C111.11,353.637,102.943,361.062,97.003,359.329z"/>
				
					<line style="fill:none;stroke:#263238;stroke-linecap:round;stroke-linejoin:round;stroke-miterlimit:10;" x1="97.003" y1="359.329" x2="105.151" y2="353.021"/>
			</g>
			<g>
				
					<line style="fill:none;stroke:#263238;stroke-linecap:round;stroke-linejoin:round;stroke-miterlimit:10;" x1="93.042" y1="339.162" x2="98.735" y2="331.736"/>
				<path style="fill:#92E3A9;stroke:#263238;stroke-miterlimit:10;" d="M97.003,333.964c0,0-0.495-2.97,1.98-5.693
					c1.489-1.638,9.753-6.176,10.89-3.218C111.11,328.271,102.943,335.697,97.003,333.964z"/>
				
					<line style="fill:none;stroke:#263238;stroke-linecap:round;stroke-linejoin:round;stroke-miterlimit:10;" x1="97.003" y1="333.964" x2="105.151" y2="327.656"/>
			</g>
			<g>
				
					<line style="fill:none;stroke:#263238;stroke-linecap:round;stroke-linejoin:round;stroke-miterlimit:10;" x1="93.042" y1="305.635" x2="98.735" y2="298.21"/>
				<path style="fill:#92E3A9;stroke:#263238;stroke-miterlimit:10;" d="M97.003,300.437c0,0-0.495-2.97,1.98-5.693
					c1.489-1.638,9.753-6.176,10.89-3.218C111.11,294.745,102.943,302.17,97.003,300.437z"/>
				
					<line style="fill:none;stroke:#263238;stroke-linecap:round;stroke-linejoin:round;stroke-miterlimit:10;" x1="97.003" y1="300.437" x2="105.151" y2="294.129"/>
			</g>
			<g>
				
					<line style="fill:none;stroke:#263238;stroke-linecap:round;stroke-linejoin:round;stroke-miterlimit:10;" x1="93.288" y1="276.701" x2="98.868" y2="272.347"/>
				<path style="fill:#92E3A9;stroke:#263238;stroke-miterlimit:10;" d="M97.003,274.079c0,0-0.495-2.97,1.98-5.693
					c1.489-1.638,9.753-6.176,10.89-3.218C111.11,268.387,102.943,275.812,97.003,274.079z"/>
				
					<line style="fill:none;stroke:#263238;stroke-linecap:round;stroke-linejoin:round;stroke-miterlimit:10;" x1="97.003" y1="274.079" x2="105.151" y2="267.771"/>
				<path style="fill:#92E3A9;stroke:#263238;stroke-miterlimit:10;" d="M92.701,262.389c0,0-0.495-2.97,1.98-5.693
					c1.489-1.638,9.752-6.176,10.89-3.218C106.809,256.696,98.642,264.122,92.701,262.389z"/>
				
					<line style="fill:none;stroke:#263238;stroke-linecap:round;stroke-linejoin:round;stroke-miterlimit:10;" x1="92.701" y1="262.389" x2="100.849" y2="256.081"/>
				<path style="fill:#92E3A9;stroke:#263238;stroke-miterlimit:10;" d="M93.099,262.739c0,0-3.006,0.181-5.454-2.566
					c-1.473-1.653-5.119-10.346-2.058-11.168C88.917,248.112,95.445,257.014,93.099,262.739z"/>
				
					<line style="fill:none;stroke:#263238;stroke-linecap:round;stroke-linejoin:round;stroke-miterlimit:10;" x1="93.099" y1="262.739" x2="87.68" y2="253.975"/>
			</g>
		</g>
		<polygon style="fill:#263238;stroke:#263238;stroke-linecap:round;stroke-linejoin:round;stroke-miterlimit:10;" points="
			100.105,476.502 81.895,476.502 79.619,430.513 102.381,430.513 		"/>
	</g>
</g>
<g id="Character">
	<g>
		<polygon style="fill:#263238;stroke:#263238;stroke-linecap:round;stroke-linejoin:round;stroke-miterlimit:10;" points="
			280.827,292.036 279.076,454.435 262.88,453.997 252.086,319.001 247.709,320.752 238.804,359.884 216.042,454.435 
			201.597,453.122 205.974,407.597 218.94,287.676 219.982,278.028 279.514,278.904 280.205,285.802 		"/>
		<polygon style="fill:#737373;stroke:#263238;stroke-linecap:round;stroke-linejoin:round;stroke-miterlimit:10;" points="
			280.205,285.802 218.94,287.676 219.982,278.028 279.514,278.904 		"/>
		<polyline style="fill:#263238;stroke:#263238;stroke-linecap:round;stroke-linejoin:round;stroke-miterlimit:10;" points="
			225.685,288.644 225.685,280.733 229.64,280.966 229.873,288.411 		"/>
		<polyline style="fill:#263238;stroke:#263238;stroke-linecap:round;stroke-linejoin:round;stroke-miterlimit:10;" points="
			268.029,287.946 268.029,280.035 271.984,280.268 272.217,287.713 		"/>
		
			<rect x="245.694" y="281.664" style="fill:#FFFFFF;stroke:#263238;stroke-linecap:round;stroke-linejoin:round;stroke-miterlimit:10;" width="11.167" height="5.351"/>
		<g>
			<path style="fill:#FFFFFF;stroke:#263238;stroke-linecap:round;stroke-linejoin:round;stroke-miterlimit:10;" d="
				M304.645,229.694c-4.364-3.694-11.814-10.314-14.844-14.481c-3.502-4.815-8.317-16.415-10.943-17.728
				c-2.626-1.313-28.672-5.691-28.672-5.691l-20.355,3.283l-23.2,8.098l-17.718,35.622l-12.511,6.511c0,0,1.421,4.796,4.263,9.059
				c2.842,4.263,10.303,10.125,13.145,10.303c2.842,0.178,8.349-6.928,8.349-6.928l5.684-8.526l-0.03-0.028l6.26-8.806l3.064,29.328
				c0,0-1.751,8.755,0,10.943c1.751,2.189,3.721,2.189,3.721,2.189l34.362-1.094c0,0,22.981,0,23.638,0
				c0.657,0,3.064-2.626,3.283-4.815c0.219-2.189-3.721-11.162-3.721-11.162l1.094-25.607l15.679,6.141
				c3.014,1.541,8.426,4.146,10.585,4.146c3.064,0,6.858-1.459,8.025-5.837c1.167-4.377,1.167-13.424,1.167-13.424L304.645,229.694z
				"/>
			<path style="fill:none;stroke:#263238;stroke-linecap:round;stroke-linejoin:round;stroke-miterlimit:10;" d="M293.993,229.678
				c0,0-1.954,9.237,0.178,13.5"/>
			<path style="fill:none;stroke:#263238;stroke-linecap:round;stroke-linejoin:round;stroke-miterlimit:10;" d="M293.638,227.901
				c0,0,1.954,12.967,4.263,16.164"/>
			<polyline style="fill:none;stroke:#263238;stroke-linecap:round;stroke-linejoin:round;stroke-miterlimit:10;" points="
				280.962,218.112 279.514,240.164 284.766,214.776 			"/>
			
				<line style="fill:none;stroke:#263238;stroke-linecap:round;stroke-linejoin:round;stroke-miterlimit:10;" x1="281.483" y1="210.18" x2="281.276" y2="213.328"/>
			
				<line style="fill:none;stroke:#263238;stroke-linecap:round;stroke-linejoin:round;stroke-miterlimit:10;" x1="198.428" y1="238.737" x2="201.981" y2="249.75"/>
			
				<line style="fill:none;stroke:#263238;stroke-linecap:round;stroke-linejoin:round;stroke-miterlimit:10;" x1="196.297" y1="236.783" x2="204.823" y2="245.309"/>
			
				<line style="fill:none;stroke:#263238;stroke-linecap:round;stroke-linejoin:round;stroke-miterlimit:10;" x1="207.215" y1="224.511" x2="205.533" y2="220.619"/>
			<polyline style="fill:none;stroke:#263238;stroke-linecap:round;stroke-linejoin:round;stroke-miterlimit:10;" points="
				208.749,217.765 214.072,240.383 208.268,226.949 			"/>
			
				<line style="fill:none;stroke:#263238;stroke-linecap:round;stroke-linejoin:round;stroke-miterlimit:10;" x1="206.954" y1="210.138" x2="207.785" y2="213.667"/>
		</g>
		<g>
			<polygon style="fill:#92E3A9;stroke:#263238;stroke-miterlimit:10;" points="259.176,260.764 257.242,264.178 252.427,272.662 
				251.717,273.905 251.227,273.222 247.918,268.547 243.278,262.025 243.015,261.648 243.401,255.748 243.996,246.774 
				244.416,240.357 245.003,231.375 245.423,224.966 246.009,215.984 246.211,212.981 244.311,210.556 241.063,206.406 
				246.745,200.366 254.029,203.92 252.269,206.827 248.872,212.447 249.301,214.443 250.982,222.357 252.19,228.004 
				253.88,235.918 255.079,241.574 256.769,249.479 257.977,255.126 			"/>
			<path style="fill:#263238;stroke:#263238;stroke-linecap:round;stroke-linejoin:round;stroke-miterlimit:10;" d="
				M252.269,206.827l-7.958,3.73l1.9,2.425l-0.201,3.003l3.292-1.541l-0.429-1.996L252.269,206.827z M250.982,222.357l-5.559,2.609
				l-0.42,6.408l7.188-3.37L250.982,222.357z M253.88,235.918l-9.464,4.439l-0.42,6.417l11.083-5.2L253.88,235.918z
				 M256.769,249.479l-13.368,6.268l-0.385,5.901l0.263,0.376l14.699-6.899L256.769,249.479z M247.918,268.547l3.309,4.675
				l1.199-0.56l4.815-8.483L247.918,268.547z"/>
		</g>
		<path style="fill:#FFFFFF;stroke:#263238;stroke-linecap:round;stroke-linejoin:round;stroke-miterlimit:10;" d="M236.694,188.643
			l-4.023,0.635l-5.082,6.565l9.318,15.247l6.565-5.082l3.812,2.118l4.447-3.388l6.353,2.118c0,0-1.694-12.706-2.329-14.612
			c-0.635-1.906-6.141-4.447-6.141-4.447L236.694,188.643z"/>
		<g>
			<polygon style="fill:#FFFFFF;stroke:#263238;stroke-linecap:round;stroke-linejoin:round;stroke-miterlimit:10;" points="
				235.212,179.113 234.788,191.607 241.988,202.407 247.283,208.125 251.306,200.501 252.365,192.666 251.518,183.137 			"/>
			<path style="fill:#263238;stroke:#263238;stroke-linecap:round;stroke-linejoin:round;stroke-miterlimit:10;" d="M251.76,185.859
				l-0.242-2.723l-16.306-4.023l-0.254,7.491C237.804,187.286,245.409,188.662,251.76,185.859z"/>
		</g>
		<g>
			<path style="fill:#FFFFFF;stroke:#263238;stroke-linecap:round;stroke-linejoin:round;stroke-miterlimit:10;" d="
				M294.396,219.591l0.657-26.483c0,0-3.94-2.845-5.472-4.377c-1.532-1.532-2.189-5.253-2.845-5.909
				c-0.657-0.657-3.721-2.189-5.691-2.408c-1.97-0.219-2.845-1.751,0.219-2.626c3.064-0.875,8.398,1.284,8.398,1.284l2.108-1.94
				c0,0,12.257,2.189,12.694,3.283c0.438,1.094,0.438,5.909,0.438,7.879c0,1.97,0.219,5.909,0.219,5.909l6.785,25.826
				c0,0,0,4.377-1.313,5.253s-11.162,2.189-13.789,0.219C294.178,223.531,294.396,219.591,294.396,219.591z"/>
			<path style="fill:#FFFFFF;stroke:#263238;stroke-linecap:round;stroke-linejoin:round;stroke-miterlimit:10;" d="
				M287.393,172.316c0,0,1.313,6.347,2.845,6.566c1.532,0.219,1.313-1.97,1.751-3.94c0.438-1.97,0-3.502-0.876-3.502
				C290.238,171.44,287.831,171.221,287.393,172.316z"/>
			<path style="fill:#FFFFFF;stroke:#263238;stroke-linecap:round;stroke-linejoin:round;stroke-miterlimit:10;" d="
				M292.864,172.316c0,0-1.313,6.347,0.219,7.223c1.532,0.875,9.63,3.064,10.506,1.97c0.875-1.094,0.657-5.253-0.438-5.909
				C302.057,174.942,294.396,172.097,292.864,172.316z"/>
			
				<line style="fill:none;stroke:#263238;stroke-linecap:round;stroke-linejoin:round;stroke-miterlimit:10;" x1="296.476" y1="173.346" x2="296.099" y2="180.583"/>
			
				<line style="fill:none;stroke:#263238;stroke-linecap:round;stroke-linejoin:round;stroke-miterlimit:10;" x1="300.547" y1="174.703" x2="300.17" y2="181.336"/>
			<path style="fill:none;stroke:#263238;stroke-linecap:round;stroke-linejoin:round;stroke-miterlimit:10;" d="M288.706,178.225
				c0,0,0.307,1.001,2.041,1.227c1.734,0.226,6.773,2.062,8.424,6.883"/>
		</g>
		<path style="fill:#FFFFFF;stroke:#263238;stroke-linecap:round;stroke-linejoin:round;stroke-miterlimit:10;" d="M294.396,219.591
			c0,0-2.845,10.506-1.532,12.475s10.725,6.347,15.321,6.347s8.974-4.159,9.192-5.909s-5.472-12.475-5.472-12.475
			s-1.094,3.721-5.472,3.721C298.407,223.749,294.396,219.591,294.396,219.591z"/>
		<path style="fill:#FFFFFF;stroke:#263238;stroke-linecap:round;stroke-linejoin:round;stroke-miterlimit:10;" d="M177.29,231.454
			c0,0-3.375,1.776-3.553,2.842c-0.178,1.066-0.711,10.48,0.178,12.967c0.888,2.487,8.882,4.263,14.388,3.908
			s11.368-8.704,11.546-10.303c0.178-1.599-0.888-5.507-1.599-7.638c-0.71-2.132-3.908-4.085-5.151-4.085
			C191.856,229.145,177.29,231.454,177.29,231.454z"/>
		<g>
			<path style="fill:#FFFFFF;stroke:#263238;stroke-linecap:round;stroke-linejoin:round;stroke-miterlimit:10;" d="
				M194.796,231.584l-1.697-28.554c0,0,3.94-2.845,5.472-4.377c1.532-1.532,2.189-5.253,2.845-5.909
				c0.657-0.657,3.721-2.189,5.691-2.408c1.97-0.219,2.845-1.751-0.219-2.626c-3.064-0.876-8.398,1.283-8.398,1.283l-2.108-1.94
				c0,0-12.257,2.189-12.694,3.283c-0.438,1.094-0.438,5.909-0.438,7.879c0,1.97-0.219,5.909-0.219,5.909l-6.699,29.715
				c0,0,0,4.377,1.313,5.253c1.313,0.875,12.117,0.371,14.743-1.599C195.015,235.524,194.796,231.584,194.796,231.584z"/>
			<path style="fill:#FFFFFF;stroke:#263238;stroke-linecap:round;stroke-linejoin:round;stroke-miterlimit:10;" d="
				M200.759,182.238c0,0-1.313,6.347-2.845,6.566c-1.532,0.219-1.313-1.97-1.751-3.94c-0.438-1.97,0-3.502,0.876-3.502
				S200.321,181.143,200.759,182.238z"/>
			<path style="fill:#FFFFFF;stroke:#263238;stroke-linecap:round;stroke-linejoin:round;stroke-miterlimit:10;" d="
				M195.288,182.238c0,0,1.313,6.347-0.219,7.223c-1.532,0.875-9.63,3.064-10.506,1.97c-0.876-1.094-0.657-5.253,0.438-5.909
				C186.095,184.864,193.755,182.019,195.288,182.238z"/>
			
				<line style="fill:none;stroke:#263238;stroke-linecap:round;stroke-linejoin:round;stroke-miterlimit:10;" x1="191.676" y1="183.268" x2="192.052" y2="190.505"/>
			
				<line style="fill:none;stroke:#263238;stroke-linecap:round;stroke-linejoin:round;stroke-miterlimit:10;" x1="187.605" y1="184.625" x2="187.982" y2="191.258"/>
			<path style="fill:none;stroke:#263238;stroke-linecap:round;stroke-linejoin:round;stroke-miterlimit:10;" d="M199.446,188.147
				c0,0-0.308,1.001-2.041,1.227c-1.734,0.226-6.773,2.062-8.424,6.883"/>
		</g>
		<g>
			<path style="fill:#263238;stroke:#263238;stroke-linecap:round;stroke-linejoin:round;stroke-miterlimit:10;" d="
				M222.506,163.866c0,0-6.776-6.776-6.141-14.188c0.635-7.412,7.412-9.741,9.529-9.741c2.118,0,4.659-0.212,4.659-0.212
				s1.059-8.47,7.412-11.223c6.353-2.753,15.67,6.565,17.788,9.741c2.118,3.176,1.271,5.929,3.6,5.718
				c2.329-0.212,1.906-0.212,1.271,1.27c-0.635,1.482-5.082,3.812-5.082,3.812s-2.753,1.906-4.447,1.906
				c-1.694,0-8.259-2.753-12.07-3.6c-3.812-0.847-5.082-2.329-5.082,1.059s0.635,7.2-1.271,9.317
				c-1.906,2.118-2.965,4.023-2.965,4.023s2.329,7.623,1.482,8.259c-0.847,0.635-3.6,0.423-4.023-0.635
				c-0.424-1.059-2.329-4.235-2.329-4.235L222.506,163.866z"/>
			<path style="fill:#FFFFFF;stroke:#263238;stroke-linecap:round;stroke-linejoin:round;stroke-miterlimit:10;" d="
				M255.965,155.819c0,0,2.329-3.388,3.388-0.212c1.059,3.176-1.694,7.623-1.694,8.471
				C257.659,164.925,255.965,155.819,255.965,155.819z"/>
			<path style="fill:#FFFFFF;stroke:#263238;stroke-linecap:round;stroke-linejoin:round;stroke-miterlimit:10;" d="M232.247,145.02
				c0,0,0,8.682-1.482,11.435c-1.482,2.753-3.6,4.447-3.6,4.447s3.176,7.2,2.541,7.835c-0.635,0.635-4.447-5.717-4.447-5.717
				s-3.812-1.059-3.6,4.447c0.212,5.506,2.965,6.776,4.87,7.623c1.906,0.847,4.023,0.847,4.023,0.847s4.023,6.353,11.012,9.106
				c6.988,2.753,15.035,2.118,17.153-3.812c2.118-5.929-3.176-32.188-3.176-32.188s-7.412,0.635-12.706-2.118
				c-5.294-2.753-6.353-4.87-7.835-4.447C233.518,142.902,232.247,145.02,232.247,145.02z"/>
			<g>
				<path style="fill:none;stroke:#263238;stroke-linecap:round;stroke-linejoin:round;stroke-miterlimit:10;" d="M245.8,156.667
					c0,0,4.447,11.859,3.812,13.553c-0.635,1.694-5.082,0.424-5.082,0.424"/>
				<path style="fill:none;stroke:#263238;stroke-linecap:round;stroke-linejoin:round;stroke-miterlimit:10;" d="M237.753,172.337
					c0,0,2.541,4.023,8.259,4.87c5.718,0.847,8.471-8.259,8.471-8.259"/>
				
					<line style="fill:none;stroke:#263238;stroke-linecap:round;stroke-linejoin:round;stroke-miterlimit:10;" x1="238.812" y1="171.278" x2="236.271" y2="174.243"/>
				
					<circle style="fill:none;stroke:#263238;stroke-linecap:round;stroke-linejoin:round;stroke-miterlimit:10;" cx="237.541" cy="160.902" r="6.141"/>
				<path style="fill:none;stroke:#263238;stroke-linecap:round;stroke-linejoin:round;stroke-miterlimit:10;" d="M235.121,161.983
					c0,0,3.385,0.911,5.338-1.432"/>
				<path style="fill:none;stroke:#263238;stroke-linecap:round;stroke-linejoin:round;stroke-miterlimit:10;" d="M248.79,157.817
					c0,0,4.036,1.172,6.379-1.562"/>
				<path style="fill:#FFFFFF;stroke:#263238;stroke-linecap:round;stroke-linejoin:round;stroke-miterlimit:10;" d="
					M232.517,155.213c0,0,1.172-1.823,5.338-3.255"/>
				<path style="fill:none;stroke:#263238;stroke-linecap:round;stroke-linejoin:round;stroke-miterlimit:10;" d="M246.968,150.266
					c0,0,3.255-1.693,7.16-0.391"/>
				
					<circle style="fill:none;stroke:#263238;stroke-linecap:round;stroke-linejoin:round;stroke-miterlimit:10;" cx="252.153" cy="156.667" r="6.141"/>
				
					<line style="fill:none;stroke:#263238;stroke-linecap:round;stroke-linejoin:round;stroke-miterlimit:10;" x1="243.259" y1="158.784" x2="246.012" y2="158.149"/>
				
					<line style="fill:none;stroke:#263238;stroke-linecap:round;stroke-linejoin:round;stroke-miterlimit:10;" x1="231.4" y1="162.384" x2="225.683" y2="164.29"/>
			</g>
		</g>
		<g>
			<path style="fill:#FFFFFF;stroke:#263238;stroke-linecap:round;stroke-linejoin:round;stroke-miterlimit:10;" d="
				M202.177,451.891l-5.18,9.62l-9.62,10.73c0,0-1.85,2.59-1.11,3.7c0.74,1.11,28.49,0,28.49,0l1.85-1.11l0.74-3.33l-0.859-9.556
				l-0.445-7.511L202.177,451.891z"/>
			<path style="fill:#FFFFFF;stroke:#263238;stroke-linecap:round;stroke-linejoin:round;stroke-miterlimit:10;" d="
				M186.425,473.943c-0.304,0.721-0.488,1.506-0.159,1.999c0.74,1.11,28.49,0,28.49,0l1.85-1.11l0.507-2.284L186.425,473.943z"/>
		</g>
		<g>
			<path style="fill:#FFFFFF;stroke:#263238;stroke-linecap:round;stroke-linejoin:round;stroke-miterlimit:10;" d="
				M279.076,454.435l3.217,7.077l9.62,10.73c0,0,1.85,2.59,1.11,3.7c-0.74,1.11-28.49,0-28.49,0l-1.85-1.11l-0.74-3.33l0.74-15.17
				l0.565-1.897H279.076z"/>
			<path style="fill:#FFFFFF;stroke:#263238;stroke-linecap:round;stroke-linejoin:round;stroke-miterlimit:10;" d="
				M293.023,475.942c0.456-0.684-0.071-1.927-0.543-2.783l-30.472-1.36l0.674,3.033l1.85,1.11
				C264.533,475.942,292.283,477.052,293.023,475.942z"/>
		</g>
	</g>
</g>
</svg>
